# xmcd
#
# Track frame offsets:
#	150
#	19318
#	32786
#	51066
#	67104
#	90237
#	106451
#	118866
#	131149
#	142300
#	160182
#	173948
#	186564
#	208190
#
# Disc length: 3116 seconds
#
# Revision: 5
# Processed by: cddbd v1.5.2PL0 Copyright (c) Steve Scherf et al.
# Submitted via: EasyCDDAExtractor 2010.6.0.0
#
DISCID=d90c2a0e
DTITLE=Various Artist - Emozione In Musica-11 Se Finisce Un Amore
DYEAR=1997
DGENRE=Italiani
TTITLE0=Riccardo Cocciante - Quando Finisce Un Amore
TTITLE1=Bobby Solo - Non C'è Più Niente Da Fare
TTITLE2=Anna Oxa E Fausto Leali - Ti Lascerò
TTITLE3=Formula Tre - Non È Francesca
TTITLE4=Rino Gaetano - Nuntereggae Più
TTITLE5=Camaleonti - Applausi
TTITLE6=Luigi Tenco - Lontano Lontano
TTITLE7=Michele - Se Mi Vuoi Lasciare
TTITLE8=Mina - Addio
TTITLE9=Domenico Modugno - Piange Il Telefono
TTITLE10=Little Tony - Riderà
TTITLE11=Bruno Lauzi - Ritornerai
TTITLE12=Patty Pravo - Non Andare Via
TTITLE13=Claudio Baglioni - Questo Piccolo Grande Amore
EXTD=YEAR: 1997
EXTT0=
EXTT1=
EXTT2=
EXTT3=
EXTT4=
EXTT5=
EXTT6=
EXTT7=
EXTT8=
EXTT9=
EXTT10=
EXTT11=
EXTT12=
EXTT13=
PLAYORDER=
